<svg width="1200" height="820" viewBox="0 0 1200 820" fill="none" xmlns="http://www.w3.org/2000/svg" role="img" aria-labelledby="title desc">
  <title id="title">Дюлгери лого</title>
  <desc id="desc">Компактно лого с емблема и надпис Дюлгери.</desc>

  <g transform="translate(300 20)">
    <path d="M0 0H220C290 0 345 30 375 92C390 123 396 158 396 196C396 243 386 283 366 314C334 364 280 384 206 384H0V0Z" fill="#49545C"/>
    <path d="M0 0H124V384H0V0Z" fill="#079B44"/>
    <path d="M28 362C34 309 47 261 68 223C87 189 109 153 134 111C156 74 173 39 184 0H209V384H30L28 362Z" fill="#ECEDEE"/>
    <path d="M103 76C112 43 138 22 179 20C220 18 251 32 271 62C290 91 294 123 283 156C307 136 334 131 361 142C381 151 394 170 395 194C396 216 388 236 369 250C351 263 329 268 304 265C320 278 329 294 332 313C336 337 329 355 311 368C286 386 255 386 220 368C194 354 164 346 131 345C141 327 159 309 184 291C212 270 230 246 237 219C244 190 238 163 219 140C205 124 185 113 159 106C130 98 111 88 103 76Z" fill="#F4F4F4"/>
    <path d="M262 220C271 220 278 213 278 204C278 195 271 188 262 188C253 188 246 195 246 204C246 213 253 220 262 220Z" fill="#49545C"/>
  </g>

  <text x="30" y="680" font-family="'Comic Sans MS', 'Trebuchet MS', cursive" font-size="280" font-style="italic" font-weight="700" fill="#069B45" stroke="#49545C" stroke-width="14" paint-order="stroke fill">дюлгери</text>
</svg>
