<svg width="128" height="128" viewBox="0 0 128 128" fill="none" xmlns="http://www.w3.org/2000/svg">
  <rect width="128" height="128" rx="24" fill="#E6F5EA"/>
  <path d="M64 101C80.5685 101 94 87.5685 94 71C94 54.4315 80.5685 41 64 41C47.4315 41 34 54.4315 34 71C34 87.5685 47.4315 101 64 101Z" fill="#4BA26A"/>
  <path d="M65 24C80.464 24 93 36.536 93 52C77.536 52 65 39.464 65 24Z" fill="#68C08A"/>
  <path d="M63 30C53.6112 30 46 37.6112 46 47C55.3888 47 63 39.3888 63 30Z" fill="#86D7A3"/>
  <circle cx="64" cy="71" r="14" fill="#F7FFF9"/>
</svg>
